<mxfile host="Electron" modified="2023-09-20T17:46:07.905Z" agent="Mozilla/5.0 (Macintosh; Intel Mac OS X 10_15_7) AppleWebKit/537.36 (KHTML, like Gecko) draw.io/21.7.5 Chrome/114.0.5735.289 Electron/25.8.1 Safari/537.36" etag="Kf8RHaEQhB9kdCoZqxkc" version="21.7.5" type="device">
  <diagram name="Page-1" id="JpExchuV2nQb1WH-dLhe">
    <mxGraphModel dx="1514" dy="1000" grid="1" gridSize="10" guides="1" tooltips="1" connect="1" arrows="1" fold="1" page="0" pageScale="1" pageWidth="850" pageHeight="1100" math="0" shadow="0">
      <root>
        <mxCell id="0" />
        <mxCell id="1" parent="0" />
        <mxCell id="ZQBgeoi-Po43PSNOygWH-13" value="Web-Component" style="rounded=0;fillColor=#dae8fc;strokeColor=#6c8ebf;verticalAlign=top;" vertex="1" parent="1">
          <mxGeometry x="-70" y="170" width="630" height="350" as="geometry" />
        </mxCell>
        <mxCell id="ZQBgeoi-Po43PSNOygWH-5" value="" style="edgeStyle=orthogonalEdgeStyle;rounded=0;orthogonalLoop=1;jettySize=auto;entryX=0;entryY=0.5;entryDx=0;entryDy=0;" edge="1" parent="1" source="ZQBgeoi-Po43PSNOygWH-1" target="ZQBgeoi-Po43PSNOygWH-4">
          <mxGeometry relative="1" as="geometry" />
        </mxCell>
        <mxCell id="ZQBgeoi-Po43PSNOygWH-1" value="Address input box" style="rounded=1;" vertex="1" parent="1">
          <mxGeometry x="-40" y="200" width="140" height="60" as="geometry" />
        </mxCell>
        <mxCell id="ZQBgeoi-Po43PSNOygWH-6" value="" style="edgeStyle=orthogonalEdgeStyle;rounded=0;orthogonalLoop=1;jettySize=auto;entryX=0;entryY=0.5;entryDx=0;entryDy=0;" edge="1" parent="1" source="ZQBgeoi-Po43PSNOygWH-2" target="ZQBgeoi-Po43PSNOygWH-4">
          <mxGeometry relative="1" as="geometry" />
        </mxCell>
        <mxCell id="ZQBgeoi-Po43PSNOygWH-2" value="City input box" style="rounded=1;" vertex="1" parent="1">
          <mxGeometry x="-40" y="320" width="140" height="60" as="geometry" />
        </mxCell>
        <mxCell id="ZQBgeoi-Po43PSNOygWH-7" value="" style="edgeStyle=orthogonalEdgeStyle;rounded=0;orthogonalLoop=1;jettySize=auto;entryX=0;entryY=0.5;entryDx=0;entryDy=0;" edge="1" parent="1" source="ZQBgeoi-Po43PSNOygWH-3" target="ZQBgeoi-Po43PSNOygWH-4">
          <mxGeometry relative="1" as="geometry" />
        </mxCell>
        <mxCell id="ZQBgeoi-Po43PSNOygWH-3" value="Postal Code input box" style="rounded=1;" vertex="1" parent="1">
          <mxGeometry x="-40" y="440" width="140" height="60" as="geometry" />
        </mxCell>
        <mxCell id="ZQBgeoi-Po43PSNOygWH-10" value="" style="edgeStyle=orthogonalEdgeStyle;rounded=0;orthogonalLoop=1;jettySize=auto;entryX=0;entryY=0.5;entryDx=0;entryDy=0;" edge="1" parent="1" source="ZQBgeoi-Po43PSNOygWH-4" target="ZQBgeoi-Po43PSNOygWH-9">
          <mxGeometry relative="1" as="geometry" />
        </mxCell>
        <mxCell id="ZQBgeoi-Po43PSNOygWH-4" value="State Engine" style="rounded=1;" vertex="1" parent="1">
          <mxGeometry x="400" y="320" width="120" height="60" as="geometry" />
        </mxCell>
        <mxCell id="ZQBgeoi-Po43PSNOygWH-8" value="debounced Input event" style="text;strokeColor=none;fillColor=none;align=center;verticalAlign=middle;rounded=0;" vertex="1" parent="1">
          <mxGeometry x="270" y="320" width="90" height="30" as="geometry" />
        </mxCell>
        <mxCell id="ZQBgeoi-Po43PSNOygWH-9" value="Client" style="rounded=1;" vertex="1" parent="1">
          <mxGeometry x="800" y="320" width="120" height="60" as="geometry" />
        </mxCell>
        <mxCell id="ZQBgeoi-Po43PSNOygWH-11" value="debounced&#xa;state changed event" style="text;strokeColor=none;fillColor=none;align=center;verticalAlign=middle;rounded=0;" vertex="1" parent="1">
          <mxGeometry x="590" y="320" width="130" height="30" as="geometry" />
        </mxCell>
      </root>
    </mxGraphModel>
  </diagram>
</mxfile>
